<svg xmlns="http://www.w3.org/2000/svg" viewBox="0 0 7930 1505" role="img" aria-label="Centrum Wywiadu i Detektywistyki">
  <path fill="#fbc707" transform="translate(601.0 571.0) scale(0.998188 0.998700)" d="M370 708c2 35-9 33 9 60 64 10 43-64 38-75-28-68-149-55-235-159-60-72-154-249-128-392 12-66 86-128 142-66 55 61-26 240 165 362 20 13 194 100 191 28-1-45-70-2-176-80-173-127-54-296-164-364-159-97-309 135-133 449 32 57 73 109 120 146 56 44 123 57 171 91z"/>
  <path fill="#fbc707" transform="translate(488.0 461.0) scale(0.998578 0.998674)" d="M38 735c42 55 107-20 98-104-12-117-115-270-79-407 16-60 66-120 112-145 117-63 252-21 281 179 10 72 40 133 80 167 14 11 175 112 173 38-2-46-78-7-154-94-50-57-41-116-64-193-35-120-162-222-313-155-109 48-195 166-166 332 12 70 36 130 57 192 61 187-10 122-25 190z"/>
  <path fill="#ffffff" transform="translate(379.0 348.0) scale(0.998311 0.998812)" d="M1 832c39 31 91-19 109-62 24-59-3-115-21-163-144-390 146-607 373-546 68 18 91 70 130 38 0-48-71-75-112-86-259-72-548 153-465 524 19 82 90 181 32 238-30 28-46 8-46 57z"/>
  <path fill="#fbc707" transform="translate(287.0 226.0) scale(0.998890 0.997619)" d="M865 396l29-1c34-60-71-219-119-268-62-62-165-123-293-127-383-12-553 442-455 419 40-10 55-303 365-360 173-33 331 48 411 190 25 43 41 115 62 147z"/>
  <path fill="#fbc707" transform="translate(368.0 103.0) scale(0.998679 0.994924)" d="M757 191c4-46-32-64-57-82-152-110-348-145-526-65-79 35-233 143-150 153 41 4 97-129 332-144 115-8 228 30 313 95 31 25 49 56 88 43z"/>
  <path fill="#fbc707" transform="translate(406.0 1196.0) scale(0.998182 0.995370)" d="M0 74c-4 42 17 48 48 60 30 11 65 15 100 5 65-20 81-65 133-87 43 20 83 77 125 110 27 22 139 98 144 19-20-23-85-27-133-76-154-159-143-110-246-34-79 58-116-15-171 3z"/>
  <path fill="#fbc707" transform="translate(991.0 495.0) scale(0.995495 0.997024)" d="M222 325c4-76-89 11-122-149-10-50-27-187-95-175-15 38 11 57 26 100 23 69 19 163 85 210 35 24 77 35 106 14z"/>
  <path fill="#ffffff" transform="translate(704.0 693.0) scale(0.992908 0.997093)" d="M136 339c16-31-5-39-23-71-69-123-44-228-72-268-53-5-41 42-36 88 6 61 61 289 131 251z"/>
  <path fill="#fbc707" transform="translate(554.0 1368.0) scale(0.996124 0.987952)" d="M0 51c30 24 89-9 152 6 0 0 143 65 96-11-25-40-259-82-248 5z"/>
  <path fill="#fbc707" transform="translate(871.0 1063.0) scale(0.995726 0.991525)" d="M18 1c-86 40 166 137 202 114 55-38-69-58-89-65-32-10-99-56-113-49z"/>
  <path fill="none" stroke="#ffffff" stroke-width="45" stroke-linecap="round" transform="translate(0.0 0.0) scale(0.999336 0.999336)" d="M0 216v-96c0-66 55-120 120-120h96M1290 0h95c66 0 120 54 120 120v96M1505 1290v95c0 66-54 121-120 121h-95M216 1506h-96c-65 0-120-55-120-121v-95"/>
  <path fill="#ffffff" transform="translate(1877.0 228.0) scale(0.999835 0.996622)" d="M0 216c0 41 33 75 75 75h235c7 0 12-6 12-12v-35c0-7-5-12-12-12h-224c-15 0-27-12-27-27v-118c0-15 12-27 27-27h224c7 0 12-5 12-12v-35c0-7-5-13-12-13h-235c-42 0-75 35-75 76zM393 175h261c7 0 12-5 12-12v-35c0-6-5-12-12-12h-261c-7 0-12 6-12 12v35c0 7 5 12 12 12zM393 60h291c7 0 13-5 13-12v-35c0-7-6-13-13-13h-291c-7 0-12 6-12 13v35c0 7 5 12 12 12zM381 244v35c0 6 5 12 12 12h291c7 0 13-6 13-12v-35c0-7-6-12-13-12h-291c-7 0-12 5-12 12zM754 13v266c0 6 6 12 13 12h34c7 0 13-6 13-12v-196l207 204c3 3 6 4 9 4h43c7 0 12-6 12-12v-266c0-7-5-13-12-13h-35c-7 0-12 6-12 13v196l-208-205c-2-3-5-4-8-4h-43c-7 0-13 6-13 13zM1283 60v219c0 6 5 12 12 12h35c7 0 12-6 12-12v-219h127c7 0 13-5 13-12v-35c0-7-6-13-13-13h-314c-6 0-12 6-12 13v35c0 7 6 12 12 12zM1540 152v127c0 6 6 12 12 12h35c7 0 12-6 12-12v-80h149l49 86c3 4 7 6 11 6h40c5 0 8-2 11-6 2-4 2-9 0-13l-45-77 2-1c28-12 47-39 47-70v-48c0-41-34-76-75-76h-236c-6 0-12 6-12 13v35c0 7 6 12 12 12h225c15 0 27 12 27 27v26c0 15-12 27-27 27h-225c-6 0-12 5-12 12zM2218 13v192c0 15-12 27-27 27h-184c-15 0-27-12-27-27v-192c0-7-5-13-12-13h-35c-6 0-12 6-12 13v203c0 41 34 75 75 75h206c42 0 75-34 75-75v-203c0-7-5-13-12-13h-34c-7 0-13 6-13 13zM2670 114v165c0 6 6 12 13 12h34c7 0 13-6 13-12v-266c0-7-6-13-13-13h-41c-4 0-8 2-10 7l-134 220-133-220c-2-5-6-7-11-7h-40c-7 0-13 6-13 13v266c0 6 6 12 13 12h34c7 0 13-6 13-12v-165l103 171c3 4 6 6 11 6h47c4 0 8-2 11-6zM3340 199l52 90c2 4 6 7 11 7h57c4 0 8-3 10-7l153-265c3-4 3-8 0-12-2-4-6-6-10-6h-40c-5 0-9 2-11 6l-131 226-131-226c-2-4-6-6-10-6h-40c-5 0-9 2-11 6s-2 8 0 12l67 115-58 99-131-226c-2-4-6-6-10-6h-40c-5 0-9 2-11 6s-2 8 0 12l153 265c3 4 6 7 11 7h57c4 0 8-3 10-7zM3687 21l123 148v110c0 6 6 12 13 12h34c7 0 12-6 12-12v-110l123-148c3-4 4-9 2-13-2-6-6-8-11-8h-45c-4 0-7 1-10 5l-88 107-89-107c-2-4-5-5-9-5h-45c-5 0-9 2-11 8-2 4-2 9 1 13zM4340 199l53 90c2 4 6 7 10 7h57c4 0 8-3 10-7l154-265c2-4 2-8 0-12-3-4-6-6-11-6h-40c-4 0-8 2-11 6l-131 226-130-226c-3-4-7-6-11-6h-40c-5 0-8 2-11 6-2 4-2 8 0 12l67 115-57 99-131-226c-3-4-6-6-11-6h-40c-5 0-8 2-11 6-2 4-2 8 0 12l154 265c2 4 6 7 10 7h57c4 0 8-3 11-7zM4684 13v266c0 6 6 12 12 12h35c7 0 12-6 12-12v-266c0-7-5-13-12-13h-35c-6 0-12 6-12 13zM5240 272l-181-266c-3-4-6-6-10-6h-53c-4 0-8 2-10 6l-182 266c-2 3-2 8 0 12s6 7 11 7h42c4 0 7-2 10-6l155-227 156 227c2 4 6 6 10 6h42c4 0 8-3 11-7 2-4 2-9-1-12zM5301 244v35c0 6 6 12 12 12h252c41 0 75-34 75-75v-140c0-41-34-76-75-76h-252c-6 0-12 6-12 13v35c0 7 6 12 12 12h241c14 0 26 12 26 27v118c0 15-12 27-26 27h-241c-6 0-12 5-12 12zM5995 13v192c0 15-12 27-27 27h-184c-15 0-27-12-27-27v-192c0-7-5-13-12-13h-35c-7 0-12 6-12 13v203c0 41 34 75 75 75h206c42 0 75-34 75-75v-203c0-7-5-13-12-13h-35c-6 0-12 6-12 13z"/>
  <path fill="#fbc707" transform="translate(1877.0 711.0) scale(0.999835 0.996988)" d="M0 14v298c0 8 6 14 13 14h39c8 0 14-6 14-14v-298c0-8-6-14-14-14h-39c-7 0-13 6-13 14zM431 273v39c0 8 6 14 14 14h281c46 0 84-39 84-85v-157c0-46-38-84-84-84h-281c-8 0-14 6-14 14v39c0 7 6 14 14 14h269c16 0 30 13 30 30v132c0 16-14 30-30 30h-269c-8 0-14 6-14 14zM889 196h292c7 0 13-6 13-14v-39c0-7-6-13-13-13h-292c-7 0-14 6-14 13v39c0 8 7 14 14 14zM889 67h326c7 0 13-7 13-14v-39c0-8-6-14-13-14h-326c-7 0-14 6-14 14v39c0 7 7 14 14 14zM875 273v39c0 8 7 14 14 14h326c7 0 13-6 13-14v-39c0-8-6-14-13-14h-326c-7 0-14 6-14 14zM1450 67v245c0 8 6 14 13 14h39c8 0 14-6 14-14v-245h143c7 0 14-7 14-14v-39c0-8-7-14-14-14h-352c-8 0-14 6-14 14v39c0 7 6 14 14 14zM1752 196h291c8 0 14-6 14-14v-39c0-7-6-13-14-13h-291c-8 0-14 6-14 13v39c0 8 6 14 14 14zM1752 67h325c7 0 14-7 14-14v-39c0-8-7-14-14-14h-325c-8 0-14 6-14 14v39c0 7 6 14 14 14zM1738 273v39c0 8 6 14 14 14h325c7 0 14-6 14-14v-39c0-8-7-14-14-14h-325c-8 0-14 6-14 14zM2155 14v298c0 8 7 14 14 14h39c8 0 14-6 14-14v-60l90-75 121 144c2 4 6 5 10 5h51c5 0 10-3 12-8 3-5 2-10-2-15l-141-169 130-109c5-4 6-10 4-16-2-5-7-9-13-9h-60c-4 0-6 1-9 4l-193 161v-151c0-8-6-14-14-14h-39c-7 0-14 6-14 14zM2730 67v245c0 8 6 14 14 14h39c7 0 14-6 14-14v-245h142c8 0 14-7 14-14v-39c0-8-6-14-14-14h-352c-7 0-13 6-13 14v39c0 7 6 14 13 14zM3023 23l137 166v123c0 8 6 14 14 14h39c7 0 13-6 13-14v-123l138-166c3-4 4-10 2-15s-7-8-13-8h-50c-4 0-8 2-11 5l-99 120-99-120c-3-3-6-5-10-5h-51c-5 0-10 3-12 8-3 5-2 11 2 15zM3754 222l58 103c3 4 7 7 12 7h64c5 0 9-3 12-7l171-299c3-4 3-9 0-13-2-5-6-7-11-7h-45c-5 0-10 2-12 7l-147 253-147-253c-2-5-6-7-11-7h-45c-5 0-10 2-12 7-3 4-3 9 0 13l74 129-64 111-146-253c-3-5-7-7-12-7h-45c-5 0-10 2-12 7-3 4-3 9 0 13l172 299c2 4 6 7 11 7h64c5 0 9-3 12-7zM4139 14v298c0 8 6 14 14 14h39c7 0 14-6 14-14v-298c0-8-7-14-14-14h-39c-8 0-14 6-14 14zM4271 112c0 46 38 84 84 84h190c17 0 30 13 30 30v3c0 16-13 30-30 30h-252c-7 0-13 6-13 14v39c0 8 6 14 13 14h264c47 0 84-39 84-85v-27c0-47-37-84-84-84h-190c-16 0-30-14-30-30v-3c0-17 14-30 30-30h252c7 0 13-7 13-14v-39c0-8-6-14-13-14h-264c-46 0-84 38-84 84zM4863 67v245c0 8 6 14 14 14h38c8 0 14-6 14-14v-245h143c8 0 14-7 14-14v-39c0-8-6-14-14-14h-352c-8 0-14 6-14 14v39c0 7 6 14 14 14zM5155 23l138 166v123c0 8 6 14 13 14h39c8 0 14-6 14-14v-123l138-166c3-4 4-10 1-15-2-5-7-8-12-8h-51c-4 0-7 2-10 5l-99 120-99-120c-3-3-6-5-11-5h-50c-6 0-10 3-13 8-2 5-1 11 2 15zM5566 14v298c0 8 6 14 14 14h39c7 0 13-6 13-14v-60l90-75 121 144c3 4 6 5 11 5h50c6 0 11-3 13-8s1-10-2-15l-142-169 131-109c4-4 6-10 4-16-2-5-7-9-13-9h-61c-3 0-6 1-9 4l-193 161v-151c0-8-6-14-13-14h-39c-8 0-14 6-14 14zM5984 14v298c0 8 6 14 14 14h39c7 0 14-6 14-14v-298c0-8-7-14-14-14h-39c-8 0-14 6-14 14z"/>
</svg>
